<svg width="963" height="357" viewBox="0 0 963 357" fill="none" xmlns="http://www.w3.org/2000/svg">
<path opacity="0.6" d="M28.8561 -148.487C52.8498 -159.189 88.8403 -164.821 136.828 -165.948C224.233 -168.201 273.934 -154.683 285.931 -125.393C339.06 -7.67245 397.33 92.0242 459.028 173.697L834.357 -61.182C868.634 -82.5858 911.48 -93.8509 962.895 -94.9774C1038.3 -96.6672 1084.58 -80.896 1103.43 -47.6638C1146.27 27.2495 1201.12 90.8976 1266.24 144.97C1310.8 1.90292 1386.21 -101.173 1492.47 -164.821C1518.18 -180.593 1555.88 -188.478 1605.58 -189.605C1645 -190.731 1680.99 -186.788 1713.55 -178.34C1746.12 -169.891 1763.25 -159.189 1766.68 -146.234C1768.4 -136.095 1763.25 -127.646 1749.54 -119.197C1682.7 -78.6429 1627.86 -10.4887 1583.3 84.1386C1540.46 175.95 1525.03 247.483 1535.31 298.74C1538.74 312.821 1531.89 325.213 1514.75 335.915C1494.18 348.306 1463.33 355.066 1423.92 356.192C1379.36 357.319 1333.08 350.559 1288.52 335.351C1129.14 281.842 1002.31 201.859 909.766 95.4038C798.367 167.501 716.103 221.573 662.974 257.622C561.858 321.27 476.166 353.939 404.186 355.629C357.912 356.755 318.494 343.8 284.217 316.764C196.812 242.977 102.551 100.473 1.43496 -110.749C-3.70654 -125.393 4.86246 -138.348 28.8561 -148.487Z" fill="white"/>
</svg>
